<svg xmlns="http://www.w3.org/2000/svg" viewBox="0 0 800 480" role="img" aria-labelledby="title desc">
  <title id="title">Illustration d'un campus inclusif</title>
  <desc id="desc">Formes géométriques évoquant des bâtiments universitaires et l'inclusion.</desc>
  <defs>
    <linearGradient id="g1" x1="0" y1="0" x2="1" y2="1">
      <stop offset="0" stop-color="#662483" stop-opacity="0.95"/>
      <stop offset="1" stop-color="#42A5F5" stop-opacity="0.9"/>
    </linearGradient>
    <linearGradient id="g2" x1="0" y1="0" x2="0" y2="1">
      <stop offset="0" stop-color="#ffffff" stop-opacity="0.95"/>
      <stop offset="1" stop-color="#EDE7F6" stop-opacity="1"/>
    </linearGradient>
  </defs>
  <rect width="800" height="480" fill="url(#g2)"/>
  <circle cx="120" cy="90" r="40" fill="#42A5F5" fill-opacity="0.18"/>
  <circle cx="720" cy="120" r="60" fill="#662483" fill-opacity="0.12"/>
  <rect x="90" y="220" width="180" height="150" rx="16" fill="#ffffff" stroke="#E0E0E0" stroke-width="2"/>
  <rect x="310" y="190" width="190" height="180" rx="18" fill="#ffffff" stroke="#E0E0E0" stroke-width="2"/>
  <rect x="540" y="210" width="170" height="160" rx="18" fill="#ffffff" stroke="#E0E0E0" stroke-width="2"/>
  <rect x="115" y="245" width="40" height="90" rx="6" fill="#662483" fill-opacity="0.9"/>
  <rect x="170" y="245" width="40" height="65" rx="6" fill="#42A5F5" fill-opacity="0.9"/>
  <rect x="335" y="220" width="40" height="60" rx="6" fill="#662483" fill-opacity="0.85"/>
  <rect x="385" y="220" width="40" height="80" rx="6" fill="#42A5F5" fill-opacity="0.9"/>
  <rect x="435" y="220" width="40" height="100" rx="6" fill="#66BB6A" fill-opacity="0.9"/>
  <rect x="565" y="235" width="115" height="70" rx="10" fill="#F3E5F5"/>
  <circle cx="600" cy="270" r="18" fill="#662483"/>
  <rect x="593" y="262" width="14" height="20" rx="3" fill="#ffffff"/>
  <circle cx="640" cy="270" r="6" fill="#42A5F5"/>
  <line x1="90" y1="385" x2="710" y2="385" stroke="#E0E0E0" stroke-width="2" stroke-linecap="round"/>
  <rect x="170" y="340" width="90" height="26" rx="13" fill="#662483" fill-opacity="0.9"/>
  <rect x="290" y="340" width="120" height="26" rx="13" fill="#42A5F5" fill-opacity="0.9"/>
  <rect x="440" y="340" width="110" height="26" rx="13" fill="#66BB6A" fill-opacity="0.9"/>
</svg>